<?xml version="1.0" encoding="iso-8859-1"?>
<!-- Generator: Adobe Illustrator 19.0.0, SVG Export Plug-In . SVG Version: 6.00 Build 0)  -->
<svg version="1.1" id="Capa_1" xmlns="http://www.w3.org/2000/svg" xmlns:xlink="http://www.w3.org/1999/xlink" x="0px" y="0px"
	 viewBox="0 0 512 512" style="enable-background:new 0 0 512 512;" xml:space="preserve">
<polygon style="fill:#ECF0F1;" points="8.533,110.936 8.533,401.069 76.8,401.069 426.667,401.069 503.467,401.069 503.467,110.936 
	"/>
<polygon style="fill:#BDC3C7;" points="426.667,401.069 503.467,401.069 503.467,110.936 8.533,110.936 8.533,401.069 76.8,401.069 
	"/>
<path style="fill:#ECF0F1;" d="M8.533,110.936l223.266,146.278c14.703,9.634,33.707,9.634,48.41,0l223.258-146.278H8.533z"/>
<g>
	<polygon style="fill:#9BAAB3;" points="203.452,238.637 8.533,110.936 8.533,401.069 	"/>
	<polygon style="fill:#9BAAB3;" points="503.467,401.069 503.467,110.936 308.548,238.637 	"/>
</g>
<g>
	<path style="fill:#611C90;" d="M503.467,409.603H8.533c-4.71,0-8.533-3.814-8.533-8.533V110.936c0-3.132,1.724-6.016,4.471-7.509
		c2.765-1.476,6.118-1.348,8.73,0.367l223.258,146.278c11.878,7.782,27.204,7.774,39.049,0l223.275-146.287
		c2.637-1.715,5.956-1.843,8.73-0.367c2.773,1.502,4.489,4.386,4.489,7.518v290.133C512,405.788,508.186,409.603,503.467,409.603z
		 M17.067,392.536h477.867V126.731L284.877,264.357c-17.527,11.503-40.201,11.503-57.762,0L17.067,126.731V392.536z"/>
	<path style="fill:#611C90;" d="M503.467,409.603H8.533c-4.71,0-8.533-3.814-8.533-8.533V110.936c0-4.71,3.823-8.533,8.533-8.533
		h494.933c4.719,0,8.533,3.823,8.533,8.533v290.133C512,405.788,508.186,409.603,503.467,409.603z M17.067,392.536h477.867V119.469
		H17.067V392.536z"/>
	<path style="fill:#611C90;" d="M8.533,409.603c-1.229,0-2.466-0.264-3.618-0.811C1.92,407.392,0,404.38,0,401.069V110.936
		c0-3.132,1.724-6.016,4.471-7.509c2.765-1.476,6.118-1.348,8.73,0.367l194.927,127.701c2.261,1.485,3.686,3.951,3.849,6.647
		c0.154,2.697-0.981,5.316-3.055,7.04L13.995,407.631C12.433,408.928,10.487,409.603,8.533,409.603z M17.067,126.731v256.128
		l172.066-143.394L17.067,126.731z"/>
	<path style="fill:#611C90;" d="M503.467,409.603c-1.954,0-3.9-0.674-5.47-1.971l-194.91-162.441
		c-2.074-1.732-3.209-4.343-3.046-7.04c0.154-2.697,1.579-5.163,3.84-6.647l194.918-127.701c2.637-1.715,5.956-1.843,8.73-0.367
		c2.756,1.485,4.471,4.369,4.471,7.501v290.133c0,3.311-1.92,6.323-4.915,7.723C505.933,409.338,504.695,409.603,503.467,409.603z
		 M322.867,239.456l172.066,143.394v-256.12L322.867,239.456z"/>
</g>
<g>
</g>
<g>
</g>
<g>
</g>
<g>
</g>
<g>
</g>
<g>
</g>
<g>
</g>
<g>
</g>
<g>
</g>
<g>
</g>
<g>
</g>
<g>
</g>
<g>
</g>
<g>
</g>
<g>
</g>
</svg>
